<?xml version="1.0" encoding="UTF-8"?>
<svg xmlns="http://www.w3.org/2000/svg" version="1.1" width="400" height="400" viewBox="0 0 400 400"><rect x="0" y="0" width="400" height="400" fill="#ffffff"/><g transform="scale(13.793)"><g transform="translate(0,0)"><path fill-rule="evenodd" d="M9 0L9 1L8 1L8 2L9 2L9 3L8 3L8 4L10 4L10 7L11 7L11 4L12 4L12 5L13 5L13 4L14 4L14 5L15 5L15 6L14 6L14 8L13 8L13 6L12 6L12 9L14 9L14 10L11 10L11 11L10 11L10 9L11 9L11 8L6 8L6 9L5 9L5 8L0 8L0 9L2 9L2 12L1 12L1 13L0 13L0 14L1 14L1 13L2 13L2 12L3 12L3 14L4 14L4 15L5 15L5 16L3 16L3 17L7 17L7 16L6 16L6 15L8 15L8 17L11 17L11 13L12 13L12 14L15 14L15 15L14 15L14 16L13 16L13 15L12 15L12 17L13 17L13 18L11 18L11 19L10 19L10 18L9 18L9 19L8 19L8 18L5 18L5 20L4 20L4 18L3 18L3 19L2 19L2 20L3 20L3 21L5 21L5 20L6 20L6 21L7 21L7 20L9 20L9 19L10 19L10 21L8 21L8 23L9 23L9 24L8 24L8 29L9 29L9 28L11 28L11 27L9 27L9 26L12 26L12 28L13 28L13 29L14 29L14 28L13 28L13 25L14 25L14 26L15 26L15 27L18 27L18 26L19 26L19 23L20 23L20 27L19 27L19 28L15 28L15 29L19 29L19 28L22 28L22 27L23 27L23 26L24 26L24 27L26 27L26 26L24 26L24 25L27 25L27 28L24 28L24 29L27 29L27 28L28 28L28 26L29 26L29 24L28 24L28 25L27 25L27 24L25 24L25 23L27 23L27 22L29 22L29 20L28 20L28 19L27 19L27 16L28 16L28 15L27 15L27 12L28 12L28 11L27 11L27 12L25 12L25 9L26 9L26 8L25 8L25 9L24 9L24 8L23 8L23 9L22 9L22 8L20 8L20 9L19 9L19 10L20 10L20 9L21 9L21 10L22 10L22 11L21 11L21 12L20 12L20 13L18 13L18 12L19 12L19 11L18 11L18 12L16 12L16 10L15 10L15 9L18 9L18 8L17 8L17 5L15 5L15 4L18 4L18 5L20 5L20 3L21 3L21 0L18 0L18 1L20 1L20 2L18 2L18 3L15 3L15 4L14 4L14 3L13 3L13 4L12 4L12 2L16 2L16 1L15 1L15 0L14 0L14 1L11 1L11 2L10 2L10 0ZM10 3L10 4L11 4L11 3ZM18 3L18 4L19 4L19 3ZM8 5L8 7L9 7L9 5ZM15 6L15 7L16 7L16 6ZM18 6L18 7L19 7L19 6ZM20 6L20 7L21 7L21 6ZM14 8L14 9L15 9L15 8ZM27 8L27 9L28 9L28 10L29 10L29 9L28 9L28 8ZM3 9L3 12L5 12L5 13L4 13L4 14L5 14L5 15L6 15L6 14L7 14L7 13L6 13L6 12L7 12L7 11L6 11L6 12L5 12L5 9ZM6 9L6 10L8 10L8 11L9 11L9 10L8 10L8 9ZM23 9L23 12L22 12L22 13L20 13L20 14L19 14L19 15L18 15L18 13L15 13L15 10L14 10L14 11L12 11L12 13L13 13L13 12L14 12L14 13L15 13L15 14L16 14L16 16L14 16L14 17L15 17L15 18L13 18L13 19L12 19L12 20L14 20L14 21L13 21L13 22L12 22L12 21L11 21L11 22L9 22L9 23L11 23L11 25L13 25L13 24L14 24L14 25L15 25L15 26L17 26L17 25L15 25L15 22L17 22L17 24L18 24L18 23L19 23L19 22L17 22L17 21L15 21L15 20L16 20L16 19L15 19L15 18L17 18L17 20L18 20L18 21L19 21L19 20L21 20L21 19L22 19L22 18L21 18L21 17L20 17L20 16L21 16L21 14L22 14L22 17L23 17L23 18L24 18L24 19L25 19L25 21L26 21L26 20L27 20L27 19L25 19L25 18L24 18L24 17L26 17L26 16L27 16L27 15L26 15L26 13L25 13L25 12L24 12L24 9ZM0 10L0 11L1 11L1 10ZM8 12L8 13L9 13L9 12ZM10 12L10 13L11 13L11 12ZM23 12L23 13L22 13L22 14L23 14L23 13L24 13L24 14L25 14L25 13L24 13L24 12ZM28 13L28 14L29 14L29 13ZM8 14L8 15L9 15L9 16L10 16L10 15L9 15L9 14ZM23 15L23 16L24 16L24 15ZM0 16L0 21L1 21L1 17L2 17L2 16ZM16 16L16 17L17 17L17 18L18 18L18 19L19 19L19 18L20 18L20 17L18 17L18 16ZM28 17L28 18L29 18L29 17ZM6 19L6 20L7 20L7 19ZM14 19L14 20L15 20L15 19ZM14 21L14 22L15 22L15 21ZM21 21L21 24L24 24L24 21ZM22 22L22 23L23 23L23 22ZM12 23L12 24L13 24L13 23ZM22 25L22 26L21 26L21 27L22 27L22 26L23 26L23 25ZM0 0L0 7L7 7L7 0ZM1 1L1 6L6 6L6 1ZM2 2L2 5L5 5L5 2ZM22 0L22 7L29 7L29 0ZM23 1L23 6L28 6L28 1ZM24 2L24 5L27 5L27 2ZM0 22L0 29L7 29L7 22ZM1 23L1 28L6 28L6 23ZM2 24L2 27L5 27L5 24Z" fill="#000000"/></g></g></svg>
