<?xml version="1.0" encoding="UTF-8"?>
<svg xmlns="http://www.w3.org/2000/svg" version="1.1" width="400" height="400" viewBox="0 0 400 400"><rect x="0" y="0" width="400" height="400" fill="#ffffff"/><g transform="scale(13.793)"><g transform="translate(0,0)"><path fill-rule="evenodd" d="M9 0L9 1L8 1L8 2L9 2L9 3L8 3L8 4L10 4L10 7L11 7L11 4L12 4L12 5L13 5L13 4L15 4L15 2L16 2L16 1L17 1L17 0L16 0L16 1L15 1L15 0L14 0L14 1L11 1L11 2L10 2L10 0ZM18 0L18 1L20 1L20 2L18 2L18 3L17 3L17 4L16 4L16 5L15 5L15 6L14 6L14 8L13 8L13 6L12 6L12 9L13 9L13 10L11 10L11 11L10 11L10 9L11 9L11 8L6 8L6 9L5 9L5 8L0 8L0 9L2 9L2 11L3 11L3 12L5 12L5 10L6 10L6 11L8 11L8 10L9 10L9 13L10 13L10 14L8 14L8 12L6 12L6 13L3 13L3 17L2 17L2 19L3 19L3 20L2 20L2 21L5 21L5 20L4 20L4 15L5 15L5 16L6 16L6 17L7 17L7 16L8 16L8 15L9 15L9 16L10 16L10 17L11 17L11 13L12 13L12 14L13 14L13 15L12 15L12 17L13 17L13 16L14 16L14 17L15 17L15 16L14 16L14 15L16 15L16 14L17 14L17 13L18 13L18 15L19 15L19 14L20 14L20 13L22 13L22 14L21 14L21 16L20 16L20 17L18 17L18 16L17 16L17 17L16 17L16 18L15 18L15 19L14 19L14 20L15 20L15 21L12 21L12 19L13 19L13 18L9 18L9 19L8 19L8 18L6 18L6 19L7 19L7 20L6 20L6 21L8 21L8 23L9 23L9 24L8 24L8 29L9 29L9 28L10 28L10 29L12 29L12 27L13 27L13 26L11 26L11 23L9 23L9 22L10 22L10 21L12 21L12 22L13 22L13 23L12 23L12 25L13 25L13 24L14 24L14 25L16 25L16 26L15 26L15 27L14 27L14 28L16 28L16 26L17 26L17 27L18 27L18 26L19 26L19 23L20 23L20 27L19 27L19 28L22 28L22 27L23 27L23 26L24 26L24 27L26 27L26 26L24 26L24 25L27 25L27 28L24 28L24 29L27 29L27 28L28 28L28 26L29 26L29 25L27 25L27 24L25 24L25 23L27 23L27 22L29 22L29 20L28 20L28 19L27 19L27 16L28 16L28 15L27 15L27 12L28 12L28 11L27 11L27 12L25 12L25 9L26 9L26 8L25 8L25 9L24 9L24 8L23 8L23 9L22 9L22 8L20 8L20 9L19 9L19 10L20 10L20 9L21 9L21 10L22 10L22 11L21 11L21 12L20 12L20 13L18 13L18 12L19 12L19 11L18 11L18 12L17 12L17 13L16 13L16 11L17 11L17 9L18 9L18 8L17 8L17 6L16 6L16 5L17 5L17 4L18 4L18 5L20 5L20 3L21 3L21 0ZM14 1L14 2L12 2L12 4L13 4L13 3L14 3L14 2L15 2L15 1ZM10 3L10 4L11 4L11 3ZM18 3L18 4L19 4L19 3ZM8 5L8 7L9 7L9 5ZM15 6L15 7L16 7L16 6ZM18 6L18 7L19 7L19 6ZM20 6L20 7L21 7L21 6ZM16 8L16 9L14 9L14 11L12 11L12 13L14 13L14 14L16 14L16 13L15 13L15 12L14 12L14 11L15 11L15 10L16 10L16 9L17 9L17 8ZM27 8L27 9L28 9L28 10L29 10L29 9L28 9L28 8ZM3 9L3 11L4 11L4 10L5 10L5 9ZM6 9L6 10L8 10L8 9ZM23 9L23 12L22 12L22 13L23 13L23 14L22 14L22 17L23 17L23 18L24 18L24 19L25 19L25 21L26 21L26 20L27 20L27 19L25 19L25 18L24 18L24 17L26 17L26 16L27 16L27 15L26 15L26 13L25 13L25 12L24 12L24 9ZM0 10L0 14L1 14L1 13L2 13L2 12L1 12L1 10ZM10 12L10 13L11 13L11 12ZM23 12L23 13L24 13L24 14L25 14L25 13L24 13L24 12ZM6 13L6 14L5 14L5 15L6 15L6 16L7 16L7 15L8 15L8 14L7 14L7 13ZM28 13L28 14L29 14L29 13ZM6 14L6 15L7 15L7 14ZM0 15L0 16L2 16L2 15ZM23 15L23 16L24 16L24 15ZM0 17L0 21L1 21L1 17ZM20 17L20 18L19 18L19 19L18 19L18 18L17 18L17 19L15 19L15 20L18 20L18 21L19 21L19 20L21 20L21 19L22 19L22 18L21 18L21 17ZM28 17L28 18L29 18L29 17ZM9 20L9 21L10 21L10 20ZM15 21L15 22L16 22L16 23L14 23L14 24L16 24L16 25L17 25L17 24L18 24L18 23L19 23L19 22L16 22L16 21ZM21 21L21 24L24 24L24 21ZM22 22L22 23L23 23L23 22ZM16 23L16 24L17 24L17 23ZM28 23L28 24L29 24L29 23ZM9 25L9 27L10 27L10 28L11 28L11 26L10 26L10 25ZM22 25L22 26L21 26L21 27L22 27L22 26L23 26L23 25ZM17 28L17 29L18 29L18 28ZM0 0L0 7L7 7L7 0ZM1 1L1 6L6 6L6 1ZM2 2L2 5L5 5L5 2ZM22 0L22 7L29 7L29 0ZM23 1L23 6L28 6L28 1ZM24 2L24 5L27 5L27 2ZM0 22L0 29L7 29L7 22ZM1 23L1 28L6 28L6 23ZM2 24L2 27L5 27L5 24Z" fill="#000000"/></g></g></svg>
