<?xml version="1.0" encoding="UTF-8"?>
<svg xmlns="http://www.w3.org/2000/svg" version="1.1" width="400" height="400" viewBox="0 0 400 400"><rect x="0" y="0" width="400" height="400" fill="#ffffff"/><g transform="scale(13.793)"><g transform="translate(0,0)"><path fill-rule="evenodd" d="M10 0L10 1L9 1L9 2L8 2L8 3L9 3L9 5L10 5L10 7L11 7L11 8L12 8L12 9L11 9L11 10L10 10L10 9L9 9L9 6L8 6L8 8L4 8L4 9L3 9L3 8L0 8L0 9L3 9L3 10L0 10L0 11L1 11L1 12L0 12L0 17L1 17L1 18L0 18L0 19L1 19L1 20L0 20L0 21L1 21L1 20L3 20L3 21L8 21L8 25L9 25L9 26L8 26L8 29L12 29L12 28L14 28L14 29L15 29L15 26L14 26L14 25L13 25L13 24L12 24L12 23L11 23L11 22L12 22L12 20L14 20L14 22L13 22L13 23L14 23L14 22L15 22L15 18L14 18L14 17L13 17L13 16L12 16L12 15L11 15L11 16L10 16L10 17L9 17L9 16L8 16L8 15L7 15L7 14L8 14L8 13L7 13L7 12L10 12L10 13L9 13L9 14L12 14L12 12L14 12L14 14L13 14L13 15L14 15L14 14L15 14L15 12L16 12L16 14L18 14L18 15L17 15L17 17L16 17L16 22L17 22L17 21L18 21L18 20L19 20L19 21L20 21L20 22L19 22L19 24L18 24L18 23L17 23L17 24L16 24L16 23L15 23L15 24L16 24L16 26L17 26L17 29L18 29L18 28L19 28L19 27L18 27L18 26L17 26L17 25L19 25L19 26L21 26L21 27L20 27L20 29L23 29L23 28L24 28L24 29L26 29L26 27L27 27L27 29L29 29L29 28L28 28L28 27L29 27L29 24L27 24L27 26L26 26L26 22L27 22L27 23L29 23L29 21L26 21L26 22L25 22L25 20L26 20L26 18L27 18L27 20L28 20L28 19L29 19L29 16L28 16L28 15L29 15L29 12L28 12L28 11L29 11L29 9L28 9L28 10L26 10L26 9L27 9L27 8L26 8L26 9L25 9L25 10L24 10L24 9L23 9L23 8L21 8L21 10L20 10L20 11L19 11L19 12L20 12L20 11L21 11L21 12L22 12L22 15L21 15L21 14L20 14L20 15L19 15L19 14L18 14L18 11L17 11L17 12L16 12L16 11L15 11L15 10L14 10L14 9L13 9L13 8L12 8L12 7L13 7L13 5L14 5L14 7L15 7L15 6L16 6L16 10L19 10L19 9L18 9L18 8L20 8L20 7L21 7L21 6L20 6L20 5L21 5L21 4L19 4L19 3L20 3L20 2L21 2L21 1L20 1L20 0L18 0L18 1L16 1L16 0L15 0L15 2L16 2L16 3L15 3L15 4L14 4L14 3L12 3L12 2L11 2L11 3L12 3L12 5L10 5L10 3L9 3L9 2L10 2L10 1L11 1L11 0ZM17 2L17 3L16 3L16 6L17 6L17 7L18 7L18 6L17 6L17 5L18 5L18 2ZM11 6L11 7L12 7L12 6ZM19 6L19 7L20 7L20 6ZM4 9L4 10L5 10L5 9ZM6 9L6 10L7 10L7 11L5 11L5 12L4 12L4 11L2 11L2 14L1 14L1 15L3 15L3 17L2 17L2 18L1 18L1 19L3 19L3 20L4 20L4 19L3 19L3 17L4 17L4 16L7 16L7 15L5 15L5 14L4 14L4 13L6 13L6 14L7 14L7 13L6 13L6 12L7 12L7 11L10 11L10 10L9 10L9 9L8 9L8 10L7 10L7 9ZM13 10L13 11L14 11L14 10ZM22 10L22 11L24 11L24 14L23 14L23 15L22 15L22 16L21 16L21 15L20 15L20 16L18 16L18 17L17 17L17 19L18 19L18 18L19 18L19 19L20 19L20 20L21 20L21 19L20 19L20 18L21 18L21 17L22 17L22 16L23 16L23 17L24 17L24 19L23 19L23 18L22 18L22 19L23 19L23 20L25 20L25 18L26 18L26 17L27 17L27 18L28 18L28 17L27 17L27 14L28 14L28 13L27 13L27 11L26 11L26 10L25 10L25 11L24 11L24 10ZM11 11L11 12L12 12L12 11ZM25 11L25 14L27 14L27 13L26 13L26 11ZM3 14L3 15L4 15L4 14ZM24 15L24 16L26 16L26 15ZM11 16L11 17L10 17L10 19L9 19L9 17L5 17L5 18L8 18L8 19L5 19L5 20L8 20L8 21L10 21L10 22L11 22L11 20L12 20L12 19L11 19L11 17L12 17L12 16ZM13 18L13 19L14 19L14 18ZM10 19L10 20L11 20L11 19ZM21 21L21 24L24 24L24 21ZM22 22L22 23L23 23L23 22ZM10 23L10 24L11 24L11 25L10 25L10 26L9 26L9 27L10 27L10 26L11 26L11 25L12 25L12 24L11 24L11 23ZM19 24L19 25L20 25L20 24ZM22 25L22 28L23 28L23 27L24 27L24 25ZM13 26L13 27L14 27L14 26ZM27 26L27 27L28 27L28 26ZM11 27L11 28L12 28L12 27ZM0 0L0 7L7 7L7 0ZM1 1L1 6L6 6L6 1ZM2 2L2 5L5 5L5 2ZM22 0L22 7L29 7L29 0ZM23 1L23 6L28 6L28 1ZM24 2L24 5L27 5L27 2ZM0 22L0 29L7 29L7 22ZM1 23L1 28L6 28L6 23ZM2 24L2 27L5 27L5 24Z" fill="#000000"/></g></g></svg>
